HIERARCHY
ROOT joint_Root
{
	OFFSET 0.0 0.0 0.0
	CHANNELS 6 Xposition Yposition Zposition Zrotation Xrotation Yrotation 
	JOINT Hips
	{
		OFFSET -0.726466 93.3139 -2.00062
		CHANNELS 6 Xposition Yposition Zposition Zrotation Xrotation Yrotation 
		JOINT Spine
		{
			OFFSET 15.7357 0.0 0.0
			CHANNELS 6 Xposition Yposition Zposition Zrotation Xrotation Yrotation 
			JOINT Chest
			{
				OFFSET 8.98455 -0.406207 0.0
				CHANNELS 6 Xposition Yposition Zposition Zrotation Xrotation Yrotation 
				JOINT Neck
				{
					OFFSET 16.3773 0.0 0.0
					CHANNELS 6 Xposition Yposition Zposition Zrotation Xrotation Yrotation 
					JOINT Head
					{
						OFFSET 6.45672 0.0 0.0
						CHANNELS 6 Xposition Yposition Zposition Zrotation Xrotation Yrotation 
						End Site
						{
							OFFSET 0.0 0.0 0.0
						}
					}
				}
				JOINT Shoulder_L
				{
					OFFSET 12.9942 -0.242716 4.98039
					CHANNELS 6 Xposition Yposition Zposition Zrotation Xrotation Yrotation 
					JOINT UpperArm_L
					{
						OFFSET 5.34809 0.0 0.0
						CHANNELS 6 Xposition Yposition Zposition Zrotation Xrotation Yrotation 
						JOINT LowerArm_L
						{
							OFFSET 24.3286 1.87007e-05 0.0
							CHANNELS 6 Xposition Yposition Zposition Zrotation Xrotation Yrotation 
							JOINT Hand_L
							{
								OFFSET 22.2916 0.0 0.0
								CHANNELS 6 Xposition Yposition Zposition Zrotation Xrotation Yrotation 
								End Site
								{
									OFFSET 0.0 0.0 0.0
								}
							}
						}
					}
				}
				JOINT Shoulder_R
				{
					OFFSET 12.9945 -0.242716 -4.98039
					CHANNELS 6 Xposition Yposition Zposition Zrotation Xrotation Yrotation 
					JOINT UpperArm_R
					{
						OFFSET -5.34813 0.0 0.0
						CHANNELS 6 Xposition Yposition Zposition Zrotation Xrotation Yrotation 
						JOINT LowerArm_R
						{
							OFFSET -24.3289 0.000322201 0.0
							CHANNELS 6 Xposition Yposition Zposition Zrotation Xrotation Yrotation 
							JOINT Hand_R
							{
								OFFSET -22.2915 -0.000108084 0.0
								CHANNELS 6 Xposition Yposition Zposition Zrotation Xrotation Yrotation 
								End Site
								{
									OFFSET 0.0 0.0 0.0
								}
							}
						}
					}
				}
			}
		}
		JOINT UpperLeg_L
		{
			OFFSET -2.19248 -6.46944 0.0
			CHANNELS 6 Xposition Yposition Zposition Zrotation Xrotation Yrotation 
			JOINT LowerLeg_L
			{
				OFFSET 39.0811 0.0 -1.23785e-05
				CHANNELS 6 Xposition Yposition Zposition Zrotation Xrotation Yrotation 
				JOINT Foot_L
				{
					OFFSET 40.9854 0.0 -1.26872e-05
					CHANNELS 6 Xposition Yposition Zposition Zrotation Xrotation Yrotation 
					JOINT Toes_L
					{
						OFFSET 11.7543 0.0 0.0
						CHANNELS 6 Xposition Yposition Zposition Zrotation Xrotation Yrotation 
						End Site
						{
							OFFSET 0.0 0.0 0.0
						}
					}
				}
			}
		}
		JOINT UpperLeg_R
		{
			OFFSET -2.19251 6.46944 0.0
			CHANNELS 6 Xposition Yposition Zposition Zrotation Xrotation Yrotation 
			JOINT LowerLeg_R
			{
				OFFSET -39.0811 -0.00228153 -0.0401928
				CHANNELS 6 Xposition Yposition Zposition Zrotation Xrotation Yrotation 
				JOINT Foot_R
				{
					OFFSET -40.9854 0.0 0.0
					CHANNELS 6 Xposition Yposition Zposition Zrotation Xrotation Yrotation 
					JOINT Toes_R
					{
						OFFSET -11.7543 0.0 0.0
						CHANNELS 6 Xposition Yposition Zposition Zrotation Xrotation Yrotation 
						End Site
						{
							OFFSET 0.0 0.0 0.0
						}
					}
				}
			}
		}
	}
}
MOTION
Frames:	4
Frame Time:	0.0333333
0.000000 0.000000 0.000000 0.000000 0.000000 -0.000000 89.369500 88.776300 181.557000 -84.434500 43.440300 177.770000 15.735700 0.000005 -0.000001 86.300900 83.720500 -85.329200 8.984550 -0.406207 -0.000000 4.775000 -0.834086 1.976010 16.377300 -0.000001 -0.000001 3.846690 8.472570 -2.015540 6.456720 -0.000001 -0.000000 -2.273670 16.128400 -0.500910 12.994200 -0.242716 4.980390 -88.745200 -3.418080 -69.827900 5.348090 -0.000007 -0.000001 -42.459600 50.454100 -52.139500 24.328600 0.000019 0.000005 0.795843 0.633121 -51.497900 22.291600 -0.000001 0.000005 8.879140 5.573380 -9.862800 12.994500 -0.242716 -4.980390 87.992300 5.536450 -70.031500 -5.348130 -0.000001 -0.000004 -74.915900 26.416100 0.936196 -24.328900 0.000322 -0.000009 2.027920 11.891900 -9.754970 -22.291500 -0.000108 -0.000004 9.445980 5.321410 -0.536337 -2.192480 -6.469440 -0.000000 -179.909000 8.117980 7.158220 39.081100 -0.000007 -0.000012 0.001900 -0.003901 25.965400 40.985400 -0.000006 -0.000013 12.614500 3.807960 -79.724600 11.754300 -0.000000 0.000003 -1.158310 -1.409530 -18.022100 -2.192510 6.469440 -0.000001 173.924000 12.595200 160.103000 -39.081100 -0.002282 -0.040193 -0.036984 0.198149 11.501800 -40.985400 0.000008 0.000006 -10.713600 6.953910 -55.197400 -11.754300 -0.000006 -0.000006 -0.029546 -0.215374 -25.395300
0.000000 0.000000 0.000000 0.000000 0.000000 -0.000000 93.194600 88.340000 180.505000 -83.445800 40.918400 177.752000 15.735700 0.000005 -0.000001 88.314000 83.431800 -86.993500 8.984550 -0.406207 -0.000000 5.370910 -0.413205 2.657280 16.377300 -0.000001 -0.000001 3.992930 8.228720 -1.886160 6.456720 -0.000001 -0.000000 -2.615410 15.508300 -0.391707 12.994200 -0.242716 4.980390 -88.973200 -2.817620 -69.967200 5.348090 -0.000007 -0.000001 -46.076900 49.661500 -47.239600 24.328600 0.000019 0.000005 0.777635 0.686078 -48.582000 22.291600 -0.000001 0.000005 8.848050 5.570200 -9.697850 12.994500 -0.242716 -4.980390 87.928600 5.858890 -70.489800 -5.348130 -0.000001 -0.000004 -73.193000 27.148200 -1.996670 -24.328900 0.000322 -0.000009 1.963450 11.165900 -10.044500 -22.291500 -0.000108 -0.000004 11.342600 5.320920 -0.523756 -2.192480 -6.469440 -0.000000 -177.559000 9.401060 8.473970 39.081100 -0.000007 -0.000012 0.009138 -0.017128 28.078200 40.985400 -0.000006 -0.000013 11.817300 5.306790 -78.455200 11.754300 -0.000000 0.000003 -2.519710 -2.810890 -22.018900 -2.192510 6.469440 -0.000001 174.485000 9.756770 157.576000 -39.081100 -0.002282 -0.040193 -0.078031 0.217418 20.514300 -40.985400 0.000008 0.000006 -10.007000 7.026050 -50.950000 -11.754300 -0.000006 -0.000006 -0.039938 -0.259863 -27.247500
0.000000 0.000000 0.000000 0.000000 0.000000 -0.000000 97.205900 88.042900 179.203000 -82.659500 37.633700 178.110000 15.735700 0.000005 -0.000001 88.572700 83.327200 -86.877100 8.984550 -0.406207 -0.000000 5.583200 -0.363877 3.405160 16.377300 -0.000001 -0.000001 4.528210 7.768280 -1.896350 6.456720 -0.000001 -0.000000 -2.358310 14.888600 -0.447658 12.994200 -0.242716 4.980390 -89.348800 -1.806580 -70.173500 5.348090 -0.000007 -0.000001 -51.176000 48.228400 -40.423500 24.328600 0.000019 0.000005 0.467504 0.485412 -43.915200 22.291600 -0.000001 0.000005 8.670440 5.563830 -9.377540 12.994500 -0.242716 -4.980390 87.739000 6.314370 -70.252900 -5.348130 -0.000001 -0.000004 -71.223100 27.266300 -4.510250 -24.328900 0.000322 -0.000009 2.038420 10.786900 -10.773200 -22.291500 -0.000108 -0.000004 13.081600 5.313070 -0.296895 -2.192480 -6.469440 -0.000000 -174.987000 10.556800 8.421080 39.081100 -0.000007 -0.000012 0.008895 -0.013884 32.643900 40.985400 -0.000006 -0.000013 11.268000 7.206310 -76.142100 11.754300 -0.000000 0.000003 -0.036130 -0.244313 -26.602400 -2.192510 6.469440 -0.000001 175.652000 9.986620 157.501000 -39.081100 -0.002282 -0.040193 -0.042424 0.091575 26.537500 -40.985400 0.000008 0.000006 -8.732190 4.928860 -50.165700 -11.754300 -0.000006 -0.000006 -0.032518 -0.228781 -25.952000
0.000000 0.000000 0.000000 0.000000 0.000000 -0.000000 101.084000 87.989500 177.712000 -82.488100 34.324800 179.227000 15.735700 0.000005 -0.000001 88.630700 83.195900 -86.631400 8.984550 -0.406207 -0.000000 5.847750 -0.357746 4.012440 16.377300 -0.000001 -0.000001 4.847490 7.198530 -1.901980 6.456720 -0.000001 -0.000000 -1.452590 14.195400 -0.754464 12.994200 -0.242716 4.980390 -89.600900 -1.117780 -70.351500 5.348090 -0.000007 -0.000001 -58.782200 44.993500 -32.348400 24.328600 0.000019 0.000005 0.502188 0.673348 -36.778200 22.291600 -0.000001 0.000005 9.493800 5.561560 -9.268250 12.994500 -0.242716 -4.980390 87.662900 6.409020 -69.916400 -5.348130 -0.000001 -0.000004 -69.286200 26.947700 -6.941310 -24.328900 0.000322 -0.000009 1.852770 8.953830 -11.748700 -22.291500 -0.000108 -0.000004 14.247000 5.315350 -0.361193 -2.192480 -6.469440 -0.000000 -172.790000 10.994900 6.168270 39.081100 -0.000007 -0.000012 0.019119 -0.022462 40.400000 40.985400 -0.000006 -0.000013 10.771200 9.263210 -70.339800 11.754300 -0.000000 0.000003 -0.112215 -0.473914 -36.420500 -2.192510 6.469440 -0.000001 176.342000 11.897500 158.827000 -39.081100 -0.002282 -0.040193 -0.028058 0.049341 32.434900 -40.985400 0.000008 0.000006 -7.618170 4.929200 -56.222200 -11.754300 -0.000006 -0.000006 -0.022049 -0.178384 -23.865300
